<?xml version="1.0" encoding="UTF-8" standalone="no"?>
<!-- Created with Inkscape (http://www.inkscape.org/) -->

<svg
   width="1024"
   height="1024"
   viewBox="0 0 1024 1024"
   version="1.1"
   id="svg1"
   xml:space="preserve"
   xmlns="http://www.w3.org/2000/svg"
   xmlns:svg="http://www.w3.org/2000/svg"><defs
     id="defs1" /><g
     id="layer1"><g
       id="g9"
       transform="matrix(97.124843,0,0,97.124843,-276.64167,-224.22532)"><path
         style="display:inline;fill:#3b1e54;fill-opacity:1;fill-rule:nonzero;stroke-width:0.0290233"
         d="m 8.701935,12.726537 c 0.5348,-0.135955 1.0497874,-0.506912 1.360891,-0.980283 0.05577,-0.08485 0.09713,-0.120315 0.127991,-0.109725 0.02508,0.0086 0.156607,0.05573 0.292291,0.104705 0.23382,0.08441 0.26488,0.08848 0.594979,0.0779 0.410997,-0.01317 0.633141,-0.08376 0.929868,-0.295503 0.467517,-0.333614 0.709948,-0.80587 0.709948,-1.382982 0,-0.2328651 -0.04751,-0.442243 -0.594126,-2.6180703 C 11.503018,5.0516047 11.457391,4.901358 11.181139,4.4185315 10.760194,3.6828142 10.054573,3.0560669 9.2584729,2.7107802 8.3634228,2.3225753 7.3667227,2.2567481 6.4418815,2.5247553 5.9118025,2.6783672 5.3054435,3.0050178 4.8961206,3.357469 4.2789866,3.8888591 3.8073268,4.6366874 3.5990897,5.4139421 3.5068587,5.7581969 3.4961041,6.5643482 3.5728707,7.3791006 c 0.071968,0.7638141 0.077046,1.4669286 0.015886,2.1996874 -0.075218,0.901192 -0.082995,1.278957 -0.031311,1.520995 0.1200377,0.562138 0.5031289,1.002018 1.0548216,1.211191 0.2607564,0.09886 0.690216,0.12426 0.9731541,0.05754 0.2079461,-0.04903 0.4647488,-0.167881 0.6296394,-0.291401 0.054981,-0.04119 0.1120075,-0.07488 0.1267259,-0.07488 0.01472,0 0.1028162,0.07041 0.1957729,0.156473 0.5968323,0.552563 1.3978134,0.762703 2.1643722,0.567829 z"
         id="path4" /><path
         style="display:inline;fill:#eeeeee;fill-opacity:1;stroke-width:0.0290233"
         d="M 7.921405,12.001896 C 7.5045499,11.949315 7.0990787,11.692352 6.8670917,11.333738 6.685089,11.052389 6.5192283,10.966069 6.2648718,11.020319 c -0.1299357,0.02771 -0.186187,0.07303 -0.3921082,0.315935 -0.04809,0.05673 -0.1569024,0.141619 -0.2418059,0.188652 -0.1405873,0.07788 -0.1789895,0.0855 -0.4300929,0.08538 -0.2424877,-1.17e-4 -0.2934334,-0.0095 -0.4226796,-0.07756 C 4.6116089,11.444966 4.4345043,11.262829 4.3638024,11.106563 4.3007354,10.967174 4.3025234,10.416272 4.3685024,9.6555514 4.4338104,8.902642 4.4304674,8.099096 4.3588924,7.3450891 4.2922464,6.6430337 4.2860624,6.0177209 4.3426314,5.7005865 4.4383354,5.1640334 4.7378291,4.6318376 5.2153743,4.1497394 5.5479514,3.813991 5.7679923,3.6519758 6.1210073,3.4829244 6.6568813,3.2263057 7.1050457,3.1366374 7.7404029,3.1589152 c 0.4919595,0.01725 0.7769583,0.080811 1.2048726,0.2687094 0.8245357,0.3620559 1.4789205,1.037507 1.7837775,1.8412017 0.03936,0.1037578 0.327365,1.2073703 0.640016,2.4524693 0.529239,2.1076402 0.567772,2.2788364 0.558533,2.4814934 -0.01589,0.348493 -0.177258,0.59538 -0.491928,0.752623 -0.14911,0.07451 -0.212156,0.08905 -0.386081,0.08905 -0.266923,0 -0.42799,-0.05635 -0.625422,-0.218807 -0.178219,-0.14665 -0.327298,-0.199364 -0.481822,-0.170376 -0.1644266,0.03085 -0.2896453,0.165501 -0.4385551,0.471603 -0.1633535,0.335792 -0.365066,0.551302 -0.6605943,0.705776 -0.3063567,0.160136 -0.5863715,0.211545 -0.9217991,0.169234 z"
         id="path3" /><path
         style="display:inline;fill:#3b1e54;fill-opacity:1;fill-rule:nonzero;stroke-width:0.0290233"
         d="M 7.8032116,7.470644 C 7.9116864,7.4047992 8.0561259,7.1880931 8.1004186,7.0247365 8.1453157,6.8591568 8.1395912,6.5231604 8.0889695,6.3527061 7.9363087,5.8386395 7.4319178,5.7047179 7.1653808,6.1074827 7.0362001,6.3026871 6.9917416,6.488051 7.0061555,6.7713414 c 0.010098,0.1985059 0.029188,0.2851281 0.088104,0.3998903 0.1815568,0.3536359 0.4398816,0.4627337 0.7089507,0.2994123 z"
         id="path9" /><path
         style="display:inline;fill:#3b1e54;fill-opacity:1;fill-rule:nonzero;stroke-width:0.0290233"
         d="M 5.8446876,7.5316562 C 5.9865093,7.4922667 6.1976864,7.2565309 6.2604616,7.0675327 6.3207807,6.8859307 6.3223905,6.5153286 6.2635796,6.3506829 6.1591472,6.0583375 5.9924548,5.9030765 5.7625453,5.8840111 5.6299308,5.8730138 5.5891876,5.8825201 5.4913143,5.9472887 5.2516455,6.1058932 5.105302,6.5323911 5.1700322,6.8836187 c 0.061537,0.3339099 0.236643,0.5823824 0.4570435,0.6485372 0.1097042,0.032928 0.097155,0.032956 0.2176151,-4.369e-4 z"
         id="path7" /></g></g></svg>
